<?xml version="1.0" encoding="UTF-8"?>
<svg width="24px" height="27px" viewBox="0 0 24 27" version="1.1" xmlns="http://www.w3.org/2000/svg" xmlns:xlink="http://www.w3.org/1999/xlink">
    <!-- Generator: Sketch 52.6 (67491) - http://www.bohemiancoding.com/sketch -->
    <title>cart</title>
    <desc>Created with Sketch.</desc>
    <g id="Modfiers-list" stroke="none" stroke-width="1" fill="none" fill-rule="evenodd">
        <g id="Add-Item/Modifier" transform="translate(-13.000000, -681.000000)" fill="#1c2a6b">
            <g id="cart" transform="translate(13.000000, 681.000000)">
                <path d="M22.2287489,4.35742979 L21.1729021,4.35742979 C21.0149106,4.35742979 20.8649362,4.42605957 20.7611745,4.54519149 C20.6579745,4.6643234 20.6111489,4.8228766 20.6335149,4.97923404 C20.688817,5.36645106 20.7149106,5.68825532 20.7149106,5.99147234 C20.7149106,9.8957617 17.5382809,13.0723404 13.6340426,13.0723404 C9.72980426,13.0723404 6.55317447,9.8957617 6.55317447,5.99147234 C6.55317447,5.68825532 6.57921702,5.36645106 6.63457021,4.97923404 C6.65693617,4.82282553 6.61011064,4.6643234 6.50691064,4.54519149 C6.4032,4.42605957 6.25317447,4.35742979 6.09518298,4.35742979 L4.83094468,4.35742979 L4.3884766,2.94306383 C4.24621277,2.48828936 3.82493617,2.17868936 3.34840851,2.17868936 L0.561702128,2.17868936 C0.260885106,2.17868936 0.0170042553,2.42251915 0.0170042553,2.72338723 L0.0170042553,3.81273191 C0.0170042553,4.11354894 0.260885106,4.35742979 0.561702128,4.35742979 L2.54788085,4.35742979 L5.99116596,15.3620426 L4.37448511,16.9787234 C3.74895319,17.6037447 3.56384681,18.5356596 3.90214468,19.3526809 C4.24044255,20.1697021 5.03085957,20.6979064 5.91492766,20.6979064 L21.2596085,20.6979064 C21.5604255,20.6979064 21.8043064,20.4540255 21.8043064,20.1532085 L21.8043064,19.0638638 C21.8043064,18.7629957 21.5604255,18.519166 21.2596085,18.519166 L5.91492766,18.519166 L8.09361702,16.3404255 L18.0436085,16.3404255 C18.8835064,16.3404255 19.6574298,15.8494468 20.0154383,15.0893617 L23.8165277,7.0122383 C23.9255489,6.77979574 23.9829957,6.52182128 23.9829957,6.26594043 L23.9829957,6.1116766 C23.9829957,5.14417021 23.1962553,4.35742979 22.2287489,4.35742979 Z" id="Path"></path>
                <path d="M13.6340426,11.9829957 C16.9377702,11.9829957 19.6255149,9.29525106 19.6255149,5.9915234 C19.6255149,2.68779574 16.9377702,0 13.6340426,0 C10.3303149,0 7.64257021,2.68774468 7.64257021,5.99147234 C7.64257021,9.2952 10.3303149,11.9829957 13.6340426,11.9829957 Z M11.4553021,5.44682553 L13.0893447,5.44682553 L13.0893447,3.81278298 C13.0893447,3.51171064 13.3329702,3.26808511 13.6340426,3.26808511 C13.9351149,3.26808511 14.1787404,3.51171064 14.1787404,3.81278298 L14.1787404,5.44682553 L15.812783,5.44682553 C16.1138553,5.44682553 16.3574809,5.69045106 16.3574809,5.9915234 C16.3574809,6.29259574 16.1138553,6.53622128 15.812783,6.53622128 L14.1787404,6.53622128 L14.1787404,8.17026383 C14.1787404,8.47133617 13.9351149,8.7149617 13.6340426,8.7149617 C13.3329702,8.7149617 13.0893447,8.47133617 13.0893447,8.17026383 L13.0893447,6.53622128 L11.4553021,6.53622128 C11.1542298,6.53622128 10.9106043,6.29259574 10.9106043,5.9915234 C10.9106553,5.69045106 11.1542809,5.44682553 11.4553021,5.44682553 Z" id="Shape" fill-rule="nonzero"></path>
                <circle id="Oval" cx="6.55317447" cy="23.9659404" r="2.17874043"></circle>
                <circle id="Oval" cx="19.6255149" cy="23.9659404" r="2.17874043"></circle>
            </g>
        </g>
    </g>
</svg>