<?xml version="1.0" encoding="UTF-8"?>
<svg width="90px" height="90px" viewBox="0 0 90 90" version="1.1" xmlns="http://www.w3.org/2000/svg" xmlns:xlink="http://www.w3.org/1999/xlink">
    <!-- Generator: Sketch 52.6 (67491) - http://www.bohemiancoding.com/sketch -->
    <title>add_avatar@2x</title>
    <desc>Created with Sketch.</desc>
    <defs>
        <path d="M45,90 C69.8528137,90 90,69.8528137 90,45 C90,20.1471863 69.8528137,0 45,0 C20.1471863,0 0,20.1471863 0,45 C0,69.8528137 20.1471863,90 45,90 Z" id="path-1"></path>
        <mask id="mask-2" maskContentUnits="userSpaceOnUse" maskUnits="objectBoundingBox" x="0" y="0" width="90" height="90" fill="white">
            <use xlink:href="#path-1"></use>
        </mask>
        <mask id="mask-4" maskContentUnits="userSpaceOnUse" maskUnits="objectBoundingBox" x="0" y="0" width="90" height="90" fill="white">
            <use xlink:href="#path-1"></use>
        </mask>
    </defs>
    <g id="Account-Settings" stroke="none" stroke-width="1" fill="none" fill-rule="evenodd">
        <g id="Account-Settings-Copy" transform="translate(-250.000000, -163.000000)">
            <g id="add_avatar" transform="translate(250.000000, 163.000000)">
                <mask id="mask-3" fill="white">
                    <use xlink:href="#path-1"></use>
                </mask>
                <g id="Mask" stroke="#C5C6CF" mask="url(#mask-2)" stroke-width="4" fill="#EAECF1" stroke-dasharray="4,3">
                    <use mask="url(#mask-4)" xlink:href="#path-1"></use>
                </g>
                <g id="ic_photo_camera" mask="url(#mask-3)">
                    <g transform="translate(33.000000, 24.000000)">
                        <polygon id="Bounds" fill="none" points="0 0 24 0 24 24 0 24"></polygon>
                        <path d="M12,15.2 C13.7673112,15.2 15.2,13.7673112 15.2,12 C15.2,10.2326888 13.7673112,8.8 12,8.8 C10.2326888,8.8 8.8,10.2326888 8.8,12 C8.8,13.7673112 10.2326888,15.2 12,15.2 Z" id="Oval" fill="#90919D" fill-rule="evenodd"></path>
                        <path d="M9,2 L7.17,4 L4,4 C2.9,4 2,4.9 2,6 L2,18 C2,19.1 2.9,20 4,20 L20,20 C21.1,20 22,19.1 22,18 L22,6 C22,4.9 21.1,4 20,4 L16.83,4 L15,2 L9,2 L9,2 Z M12,17 C9.24,17 7,14.76 7,12 C7,9.24 9.24,7 12,7 C14.76,7 17,9.24 17,12 C17,14.76 14.76,17 12,17 L12,17 Z" id="Shape" fill="#90919D" fill-rule="evenodd"></path>
                    </g>
                </g>
                <text id="ADD-PHOTO" mask="url(#mask-3)" font-family="HelveticaNeue-Medium, Helvetica Neue" font-size="10" font-weight="400" fill="#90919D">
                    <tspan x="17" y="59">ADD PHOTO</tspan>
                </text>
            </g>
        </g>
    </g>
</svg>