<?xml version="1.0" encoding="UTF-8"?>
<svg width="276px" height="139px" viewBox="0 0 276 139" version="1.1" xmlns="http://www.w3.org/2000/svg" xmlns:xlink="http://www.w3.org/1999/xlink">
    <!-- Generator: Sketch 52.6 (67491) - http://www.bohemiancoding.com/sketch -->
    <title>Group</title>
    <desc>Created with Sketch.</desc>
    <defs>
        <rect id="path-1" x="0" y="0" width="276" height="138.721461" rx="4"></rect>
        <mask id="mask-2" maskContentUnits="userSpaceOnUse" maskUnits="objectBoundingBox" x="0" y="0" width="276" height="138.721461" fill="white">
            <use xlink:href="#path-1"></use>
        </mask>
    </defs>
    <g id="Business/Store-Setup" stroke="none" stroke-width="1" fill="none" fill-rule="evenodd">
        <g id="business-setup-screens" transform="translate(-275.000000, -117.000000)">
            <g id="Store-details/add-store-form" transform="translate(-66.000000, 117.000000)">
                <g id="Group" transform="translate(341.000000, 0.000000)">
                    <path d="M181.930699,87.1504738 C181.651752,86.6611664 181.085141,86.3529412 180.468407,86.3529412 L105.531946,86.3529412 C104.913033,86.3529412 104.35078,86.6611664 104.069654,87.1504738 L99.1074508,95.909848 C98.8568345,96.3567745 98.8829858,96.888463 99.1815461,97.3161254 C99.4757479,97.7418614 100.005311,98 100.571922,98 L185.428431,98 C185.997221,98 186.524605,97.7418614 186.818807,97.3161254 C187.117367,96.888463 187.143518,96.3567745 186.890723,95.909848 L181.930699,87.1504738 L181.930699,87.1504738 Z M103.778947,94.8235294 L107.100135,88.4705882 L179.872636,88.4705882 L183.189474,94.8235294 L103.778947,94.8235294 L103.778947,94.8235294 Z M109.720362,62 C114.463144,62 118.623098,59.5819708 120.813574,56.0185594 C122.995384,59.5819708 127.159672,62 131.906787,62 C136.651736,62 140.81169,59.5819708 142.997833,56.0185594 C145.179643,59.5819708 149.341764,62 154.091046,62 C158.838161,62 163.002449,59.5839593 165.186426,56.0205479 C167.372568,59.5819708 171.532523,62 176.281805,62 C183.293062,62 189,56.764251 189,50.32943 L188.9935,49.7965091 C188.9805,49.6593018 188.969667,49.5300486 188.963167,49.4246575 C189.008667,48.9434379 188.753003,48.0625276 188.05101,45.6246133 L182.422071,30.1798498 C181.756912,27.8353955 179.16994,26 176.530969,26 L109.475531,26 C106.832226,26 104.245255,27.8353955 103.616928,30.0744587 L98.1721539,44.731772 C97.8384909,45.9169244 97.2664971,47.943217 97.2079977,48.2355281 C97.1646649,48.4642068 97.0888324,49.048829 97.0801658,49.048829 L97.0801658,49.0368979 L97,50.32943 C97,56.764251 102.704771,62 109.720362,62 L109.720362,62 Z M99.9052632,50.7340167 C99.9467571,50.3111603 99.9773316,49.9472598 99.9773316,49.9472598 L99.9773316,49.991985 C99.9860672,49.9248972 100.045032,49.5366011 100.071239,49.4085244 C100.12802,49.150338 100.536408,47.6764394 100.953531,46.1557827 L106.439467,31.1708079 C106.738661,30.1075679 108.031525,29.1764706 109.21301,29.1764706 L176.802277,29.1764706 C177.979395,29.1764706 179.276627,30.1075679 179.60421,31.2704231 L185.277961,47.0624844 C185.644855,48.3493504 185.941864,49.4532496 186.044507,49.8862709 C186.044507,50.1058309 186.06853,50.3416547 186.094737,50.5937422 L186.094737,51.0003349 C186.094737,55.8977443 181.812125,59.8823529 176.55113,59.8823529 C171.327261,59.8823529 167.042465,55.9221398 167.005339,51.0592909 C166.996603,50.2217099 166.267183,49.546766 165.36742,49.546766 C164.465472,49.546766 163.733869,50.2237428 163.729501,51.0613238 C163.692375,55.9241728 159.407579,59.8823529 154.18371,59.8823529 C148.959841,59.8823529 144.681597,55.9241728 144.644471,51.0613238 C144.637919,50.2237428 143.906315,49.546766 143.006552,49.546766 C142.106788,49.546766 141.377368,50.2217099 141.368633,51.0592909 C141.324955,55.9221398 137.044527,59.8823529 131.822842,59.8823529 C126.598973,59.8823529 122.316361,55.9241728 122.281419,51.0613238 C122.272683,50.2237428 121.543263,49.546766 120.6435,49.546766 L120.641316,49.546766 C119.741552,49.546766 119.014316,50.2217099 119.005581,51.0592909 C118.964087,55.9221398 114.681475,59.8823529 109.45979,59.8823529 C104.196611,59.8823529 99.9139987,55.8977443 99.9139987,51.0003349 L99.9052632,50.7340167 L99.9052632,50.7340167 Z M178.347368,66.6771376 L178.347368,81.6758036 C178.347368,82.5041718 178.996211,83.1764706 179.8,83.1764706 C180.601853,83.1764706 181.252632,82.5041718 181.252632,81.6758036 L181.252632,66.6771376 C181.252632,65.8487694 180.601853,65.1764706 179.8,65.1764706 C178.996211,65.1764706 178.347368,65.8487694 178.347368,66.6771376 L178.347368,66.6771376 Z M104.747368,66.6771376 L104.747368,81.6758036 C104.747368,82.5041718 105.398147,83.1764706 106.198063,83.1764706 C107.001853,83.1764706 107.652632,82.5041718 107.652632,81.6758036 L107.652632,66.6771376 C107.652632,65.8487694 107.001853,65.1764706 106.198063,65.1764706 C105.398147,65.1764706 104.747368,65.8487694 104.747368,66.6771376 L104.747368,66.6771376 Z" id="Fill-43-Copy" fill="#7C7C7C"></path>
                    <g id="logo-area" transform="translate(0.000000, 0.077626)" stroke="#D0D6E3" stroke-dasharray="4,4" stroke-width="2">
                        <use id="outline" mask="url(#mask-2)" xlink:href="#path-1"></use>
                    </g>
                </g>
            </g>
        </g>
    </g>
</svg>