<?xml version="1.0" encoding="UTF-8"?>
<svg width="24px" height="23px" viewBox="0 0 24 23" version="1.1" xmlns="http://www.w3.org/2000/svg" xmlns:xlink="http://www.w3.org/1999/xlink">
    <!-- Generator: Sketch 52.6 (67491) - http://www.bohemiancoding.com/sketch -->
    <title>portfolio</title>
    <desc>Created with Sketch.</desc>
    <g id="Page-3" stroke="none" stroke-width="1" fill="none" fill-rule="evenodd">
        <g id="portfolio" fill="#FFFFFF" fill-rule="nonzero">
            <path d="M12,12.65625 C13.1631563,12.65625 14.109375,11.7100313 14.109375,10.546875 C14.109375,9.38371875 13.1631563,8.4375 12,8.4375 C10.8368437,8.4375 9.890625,9.38371875 9.890625,10.546875 C9.890625,11.7100312 10.8368437,12.65625 12,12.65625 Z M12,9.84375 C12.3879375,9.84375 12.703125,10.1589375 12.703125,10.546875 C12.703125,10.9348125 12.3879375,11.25 12,11.25 C11.6120625,11.25 11.296875,10.9348125 11.296875,10.546875 C11.296875,10.1589375 11.6120625,9.84375 12,9.84375 Z M23.296875,5.625 L16.921875,5.625 L16.921875,4.921875 C16.921875,2.20823437 14.7136406,0 12,0 C9.28635937,0 7.078125,2.20823437 7.078125,4.921875 L7.078125,5.625 L0.703125,5.625 C0.314484375,5.625 0,5.93948438 0,6.328125 L0,21.796875 C0,22.1855156 0.314484375,22.5 0.703125,22.5 L23.296875,22.5 C23.6855156,22.5 24,22.1855156 24,21.796875 L24,6.328125 C24,5.93948438 23.6855156,5.625 23.296875,5.625 Z M8.484375,4.921875 C8.484375,2.98345312 10.0615781,1.40625 12,1.40625 C13.9384219,1.40625 15.515625,2.98345312 15.515625,4.921875 L15.515625,5.625 L8.484375,5.625 L8.484375,4.921875 Z M22.59375,21.09375 L1.40625,21.09375 L1.40625,13.0929375 C4.74839063,14.7065625 8.39625,15.5222813 12,15.5222813 C15.60375,15.5222813 19.2516094,14.7065625 22.59375,13.0929375 L22.59375,21.09375 Z M22.59375,11.5200938 C15.957,14.9681719 8.043,14.9681719 1.40625,11.5200938 L1.40625,7.03125 L22.59375,7.03125 L22.59375,11.5200938 Z" id="Shape"></path>
        </g>
    </g>
</svg>