<?xml version="1.0" encoding="UTF-8"?>
<svg width="24px" height="19px" viewBox="0 0 24 19" version="1.1" xmlns="http://www.w3.org/2000/svg" xmlns:xlink="http://www.w3.org/1999/xlink">
    <!-- Generator: Sketch 52.6 (67491) - http://www.bohemiancoding.com/sketch -->
    <title>tools-and-utensils (1)</title>
    <desc>Created with Sketch.</desc>
    <g id="Catalog" stroke="none" stroke-width="1" fill="none" fill-rule="evenodd">
        <g id="create-menu-2" transform="translate(-17.000000, -668.000000)" fill="#FFFFFF">
            <g id="tools-and-utensils-(1)" transform="translate(17.000000, 668.000000)">
                <polygon id="Path" points="16.8468889 13.538963 23.9898519 6.75259259 19.5348148 2.06318519"></polygon>
                <polygon id="Path" points="14.4051111 6.304 14.5406667 6.72703704 16.3199259 12.2815556 18.5019259 2.96355556 18.6682963 2.254 18.8257778 1.58266667 18.8 1.57666667 12.4703704 0.0942222222 12.4468889 0.193037037 14.2695556 5.88118519"></polygon>
                <polygon id="Path" points="11.855037 0.966666667 11.618 0.226296296 11.5508148 0.017037037 5.33511111 2.0082963 5.56311111 2.71940741 9.99585185 7.15222222 10.3287407 7.48548148 10.6615556 7.81822222 11.426 8.58266667 11.7091852 8.86555556 11.992 9.14874074 15.6297037 12.7857778 15.6355556 12.7667407 13.8961481 7.33918519 13.7608889 6.91592593 13.6257778 6.49303704 12.0927407 1.70792593"></polygon>
                <path d="M4.61503704,2.33762963 L4.60392593,2.34874074 L0,6.95259259 L8.13711111,15.0897778 L8.46992593,15.4225185 L8.80274074,15.7553333 L8.94437037,15.8971111 L9.0462963,15.9991111 L9.47185185,16.4248889 L9.5622963,16.5151111 L9.89711111,16.8499259 L10.1807407,17.1334815 L10.4983704,17.4511111 L10.7948148,17.7475556 L11.0913333,18.0436296 L11.5383704,18.4913333 L12.9677037,17.0616296 L12.9997778,17.0299259 L13.0626667,16.967037 L13.3782963,16.6514074 L13.5384444,16.4912593 L13.7568148,16.2725185 L13.9142222,16.1151111 L14.0142222,16.015037 L14.8618519,15.1677778 L14.9052593,15.124 L15.5118519,14.5173333 L15.8837778,14.1458519 L16.118963,13.9106667 L16.1537037,13.8754815 L16.1353333,13.8575556 L15.9861481,13.7082963 L15.8154074,13.5371852 L15.4954815,13.2177037 L11.7021481,9.42392593 L11.4193333,9.14133333 L11.1365185,8.85851852 L10.5548889,8.27688889 L10.2220741,7.94407407 L9.88925926,7.61125926 L5.82948148,3.55185185 L5.21148148,2.93385185 L4.61503704,2.33762963 Z M12.0539259,13.2725926 C12.710963,13.2725926 13.2437778,13.8053333 13.2437778,14.4623704 C13.2437778,15.1197778 12.710963,15.6522222 12.0539259,15.6522222 C11.3967407,15.6522222 10.8639259,15.1194074 10.8639259,14.4623704 C10.8639259,13.8053333 11.3966667,13.2725926 12.0539259,13.2725926 Z" id="Shape" fill-rule="nonzero"></path>
            </g>
        </g>
    </g>
</svg>