<?xml version="1.0" encoding="UTF-8"?>
<svg width="24px" height="16px" viewBox="0 0 24 16" version="1.1" xmlns="http://www.w3.org/2000/svg" xmlns:xlink="http://www.w3.org/1999/xlink">
    <!-- Generator: Sketch 52.6 (67491) - http://www.bohemiancoding.com/sketch -->
    <title>ico_dashboard</title>
    <desc>Created with Sketch.</desc>
    <g id="Loyalty" stroke="none" stroke-width="1" fill="none" fill-rule="evenodd">
        <g id="Loyalty-list" transform="translate(-18.000000, -117.000000)" fill="#FFFFFF">
            <g id="Nav" transform="translate(-4.000000, 0.000000)">
                <g id="Dashboard" transform="translate(4.000000, 96.000000)">
                    <g id="ico_dashboard" transform="translate(18.000000, 21.000000)">
                        <path d="M23.5,15 L23,15 L23,0.5 C23,0.224 22.775,0 22.5,0 L19.5,0 C19.224,0 19,0.224 19,0.5 L19,15 L17,15 L17,7.5 C17,7.224 16.775,7 16.5,7 L13.5,7 C13.224,7 13,7.224 13,7.5 L13,15 L11,15 L11,5.5 C11,5.224 10.775,5 10.5,5 L7.5,5 C7.224,5 7,5.224 7,5.5 L7,15 L5,15 L5,10.5 C5,10.224 4.775,10 4.5,10 L1.5,10 C1.224,10 1,10.224 1,10.5 L1,15 L0.5,15 C0.224,15 0,15.224 0,15.5 C0,15.775 0.224,16 0.5,16 L23.5,16 C23.775,16 24,15.775 24,15.5 C24,15.224 23.775,15 23.5,15" id="Fill-1909"></path>
                    </g>
                </g>
            </g>
        </g>
    </g>
</svg>