<?xml version="1.0" encoding="UTF-8"?>
<svg width="265px" height="76px" viewBox="0 0 265 76" version="1.1" xmlns="http://www.w3.org/2000/svg" xmlns:xlink="http://www.w3.org/1999/xlink">
    <!-- Generator: Sketch 52.6 (67491) - http://www.bohemiancoding.com/sketch -->
    <title>DeliverAiwhite</title>
    <desc>Created with Sketch.</desc>
    <g id="Signin" stroke="none" stroke-width="1" fill="none" fill-rule="evenodd">
        <g id="Sign-In-Copy" transform="translate(-381.000000, -157.000000)">
            <g id="DeliverAiwhite" transform="translate(381.000000, 157.000000)">
                <g id="Group">
                    <path d="M0.713924051,64.0511655 C1.4278481,62.1840725 2.26075949,59.8861118 3.21265823,57.013661 C4.16455696,54.1412101 5.1164557,51.1251367 6.18734177,47.6781957 C7.25822785,44.3748773 8.32911392,40.9279363 9.4,37.4809953 C10.4708861,34.0340543 11.5417722,30.7307358 12.4936709,27.5710399 C13.4455696,24.4113439 14.278481,21.6825156 14.9924051,19.0973099 C15.7063291,16.6557267 16.1822785,14.7886336 16.5392405,13.3524082 C13.6835443,14.7886336 11.1848101,16.9429718 9.16202532,19.8154226 C7.13924051,22.6878734 5.59240506,26.4220595 4.52151899,30.7307358 C3.45063291,30.2998682 2.49873418,29.4381329 1.66582278,28.4327751 C0.832911392,27.2837948 0.237974684,25.8475694 0,24.1240989 C0.475949367,21.5388931 1.30886076,19.2409324 2.61772152,17.2302168 C3.92658228,15.0758787 5.47341772,13.3524082 7.37721519,11.9161828 C9.28101266,10.4799574 11.5417722,9.33097703 14.0405063,8.46924177 C16.5392405,7.60750652 19.2759494,7.32026144 22.1316456,7.32026144 C25.8202532,7.32026144 29.1518987,8.03837415 32.1265823,9.18735448 C35.2202532,10.4799574 37.8379747,12.3470504 39.9797468,14.6450111 C42.121519,16.9429718 43.9063291,19.6718001 45.0962025,22.9751185 C46.2860759,26.278437 47,29.8690005 47,33.7468092 C47,39.2044658 46.1670886,44.2312547 44.5012658,49.1144212 C42.835443,53.9975876 40.6936709,58.3062639 37.8379747,62.0404499 C34.9822785,65.774636 31.7696203,68.7907094 28.0810127,70.9450475 C24.3924051,73.2430082 20.4658228,74.248366 16.4202532,74.248366 C12.7316456,74.248366 9.51898734,73.3866308 6.78227848,71.5195377 C4.04556962,70.0833123 2.02278481,67.4981065 0.713924051,64.0511655 Z M24.8683544,11.4853152 C22.6075949,11.4853152 20.4658228,11.9161828 18.3240506,12.6342955 C20.3468354,13.4960307 22.0126582,14.5013885 23.321519,15.3631238 C24.6303797,16.3684816 25.5822785,17.0865943 26.0582278,17.6610845 C25.7012658,18.2355746 25.1063291,19.384555 24.5113924,20.8207804 C23.7974684,22.4006283 22.964557,24.2677214 22.0126582,26.4220595 C21.0607595,28.5763977 20.1088608,31.0179809 19.0379747,33.6031866 C17.9670886,36.1883924 17.0151899,38.9172207 15.9443038,41.646049 C13.3265823,48.6835535 11.4227848,54.1412101 10.3518987,58.1626413 C9.16202532,62.1840725 8.56708861,64.9129008 8.56708861,66.4927487 C9.16202532,66.7799938 9.99493671,66.9236164 10.9468354,67.0672389 C11.8987342,67.2108615 12.8506329,67.2108615 13.921519,67.2108615 C17.6101266,67.2108615 21.0607595,66.2055037 24.3924051,64.0511655 C27.7240506,62.0404499 30.5797468,59.1679991 33.078481,55.7210581 C35.5772152,52.2741171 37.4810127,48.2526859 38.9088608,43.6567646 C40.3367089,39.0608432 41.0506329,34.1776768 41.0506329,29.1508878 C41.0506329,23.5496087 39.6227848,19.0973099 36.6481013,15.937614 C33.7924051,13.0651631 29.8658228,11.4853152 24.8683544,11.4853152 Z" id="Shape" fill="#FFFFFF" fill-rule="nonzero"></path>
                    <path d="M74,35.1642879 C73.7558685,38.5789872 73.2676056,41.4245698 72.4131455,43.8433151 C71.5586854,46.2620604 70.3380282,48.3962474 68.7511737,50.2458761 C67.1643192,52.0955049 65.3333333,53.6605753 63.0140845,55.2256458 C60.6948357,56.7907163 58.1314554,58.0712285 55.2018779,59.4940198 C55.2018779,59.7785781 55.2018779,60.2054155 55.2018779,60.4899738 C55.2018779,60.9168112 55.2018779,61.2013694 55.2018779,61.6282068 C55.2018779,62.3396025 55.2018779,63.0509982 55.3239437,63.904673 C55.4460094,64.6160686 55.5680751,65.3274643 55.8122066,66.03886 C56.056338,66.7502557 56.4225352,67.1770931 56.7887324,67.6039305 C57.1549296,68.0307679 57.7652582,68.173047 58.3755869,68.173047 C59.5962441,68.173047 60.8169014,67.8884887 62.0375587,67.1770931 C63.258216,66.4656974 64.3568075,65.7543017 65.4553991,64.7583478 C66.5539906,63.7623938 67.5305164,62.7664399 68.5070423,61.6282068 C69.4835681,60.4899738 70.3380282,59.4940198 71.0704225,58.4980659 C71.5586854,58.9249033 71.9248826,59.4940198 72.2910798,59.9208572 C70.2159624,63.1932773 67.8967136,65.8965809 65.3333333,68.0307679 C62.8920188,70.1649549 60.4507042,71.5877462 58.2535211,72.1568627 C55.0798122,71.7300253 52.5164319,70.307234 50.685446,68.0307679 C48.8544601,65.7543017 48,62.908719 48,59.636299 C48,57.3598328 48.2441315,55.0833667 48.8544601,52.8069005 C49.342723,50.5304344 50.1971831,48.2539683 51.0516432,46.1197812 C52.028169,43.9855942 53.1267606,41.9936864 54.4694836,40.0017785 C55.8122066,38.1521497 57.1549296,36.4448001 58.6197183,35.0220088 C60.084507,33.5992175 61.6713615,32.4609844 63.1361502,31.6073096 C64.7230047,30.7536348 66.3098592,30.3267974 67.7746479,30.3267974 C70.0938967,30.7536348 72.0469484,32.3187053 74,35.1642879 Z M69.1173709,37.8675915 C67.8967136,38.1521497 66.5539906,38.7212663 65.2112676,39.7172202 C63.8685446,40.7131742 62.5258216,41.9936864 61.42723,43.701036 C60.2065728,45.2661064 59.1079812,47.2580143 58.1314554,49.3922013 C57.1549296,51.5263883 56.4225352,53.9451336 55.8122066,56.3638789 C59.5962441,54.2296919 62.6478873,51.5263883 65.0892019,48.2539683 C67.6525822,45.1238273 68.9953052,41.566849 69.1173709,37.8675915 Z" id="Shape" fill="#FFFFFF" fill-rule="nonzero"></path>
                    <path d="M77,63.089652 C77,60.6576246 77.4853556,57.3672346 78.4560669,52.9323611 C79.4267782,48.4974876 80.7615063,43.4903724 82.58159,37.6248945 C85.4937238,28.3259662 88.1631799,20.6007027 90.7112971,14.449104 C93.2594142,8.29750526 95.6861925,3.43345045 98.1129707,0 C98.7196653,0.143060435 99.3263598,0.429181306 100.175732,0.858362613 C101.025105,1.28754392 101.753138,1.71672523 102.60251,2.28896697 C103.451883,2.86120871 104.058577,3.29039002 104.786611,3.86263176 C105.393305,4.4348735 105.878661,4.86405481 106,5.15017568 C102.359833,10.1572909 99.2050209,15.5935875 96.4142259,21.4590653 C93.623431,27.3245432 91.1966527,33.9053232 88.8912134,41.4875263 C86.9497908,47.9252459 85.4937238,53.7907237 84.4016736,58.9408994 C83.4309623,64.0910751 82.8242678,68.3828882 82.8242678,71.8163386 C82.8242678,72.8177617 82.8242678,73.3900034 82.8242678,73.5330638 C82.8242678,73.8191847 82.8242678,73.9622451 82.9456067,74.248366 C82.3389121,74.1053056 81.7322176,73.9622451 81.2468619,73.6761243 C80.7615063,73.3900034 80.5188285,73.1038825 80.3974895,72.6747012 C80.2761506,72.3885804 80.0334728,71.959399 79.6694561,71.5302177 C79.3054393,70.957976 78.8200837,70.6718551 78.5774059,70.3857343 C78.2133891,70.0996134 77.8493724,69.2412508 77.4853556,67.8106464 C77.1213389,66.3800421 77,64.8063773 77,63.089652 Z" id="Path" fill="#FFFFFF"></path>
                    <path d="M93,63.0546613 C93,62.6254349 93,61.9100576 93.1197917,61.1946802 C93.2395833,60.4793028 93.359375,59.4777745 93.4791667,58.1900953 C93.71875,56.902416 93.9583333,55.4716613 94.1979167,53.7547556 C94.4375,52.03785 94.9166667,49.8917179 95.2760417,47.4594349 C95.3958333,46.887133 95.515625,46.0286801 95.875,44.8840764 C96.234375,43.7394726 96.59375,42.4517933 97.1927083,41.0210386 C97.671875,39.7333593 98.390625,38.4456801 99.109375,37.1580008 C99.828125,35.8703216 100.786458,35.0118688 101.864583,34.2964914 C102.703125,34.5826423 103.661458,35.0118688 104.979167,36.0133971 C106.296875,36.8718499 107.375,38.1595292 108.333333,39.7333593 C107.255208,41.1641141 106.416667,42.5948688 105.697917,44.0256235 C104.979167,45.4563782 104.380208,46.887133 103.78125,48.4609632 C103.182292,50.0347934 102.703125,51.6086235 102.223958,53.1824537 C101.744792,54.7562839 101.145833,56.6162651 100.666667,58.3331707 C100.1875,59.9070009 99.7083333,61.4808311 99.3489583,63.0546613 C98.9895833,64.6284915 98.75,66.0592463 98.6302083,67.3469255 C98.6302083,68.3484538 98.6302083,69.0638312 98.6302083,69.4930576 C98.6302083,69.922284 98.5104167,70.0653595 98.2708333,70.0653595 C98.03125,70.0653595 97.671875,69.922284 97.1927083,69.6361331 C96.59375,69.3499821 96.1145833,68.9207557 95.515625,68.3484538 C94.9166667,67.7761519 94.4375,67.0607746 93.9583333,66.2023217 C93.2395833,65.3438689 93,64.3423406 93,63.0546613 Z M106.177083,27.4288687 C106.177083,27.1427178 106.296875,26.5704159 106.416667,25.998114 C106.177083,25.7119631 105.9375,25.2827366 105.817708,24.7104348 C105.697917,24.1381329 105.578125,23.7089064 105.578125,23.27968 C105.578125,22.8504536 105.578125,22.1350763 105.697917,21.2766234 C105.817708,20.4181706 105.9375,19.5597178 106.177083,18.5581894 C106.416667,17.5566611 106.536458,16.5551328 106.895833,15.4105291 C107.135417,14.4090007 107.494792,13.4074724 107.734375,12.5490196 C108.333333,12.5490196 108.932292,12.6920951 109.770833,13.1213215 C110.609375,13.5505479 111.328125,13.9797743 112.166667,14.5520762 C113.005208,15.1243781 113.723958,15.69668 114.442708,16.4120574 C115.161458,17.1274347 115.640625,17.6997366 116,18.2720385 C115.520833,18.8443404 114.802083,19.7027932 113.963542,20.847397 C113.125,21.8489253 112.286458,22.9935291 111.567708,24.2812083 C110.729167,25.4258121 110.130208,26.5704159 109.411458,27.5719442 C108.8125,28.5734725 108.333333,29.2888499 108.213542,29.8611518 C107.614583,29.7180763 107.135417,29.4319253 106.776042,29.0026989 C106.416667,28.2873216 106.177083,27.8580951 106.177083,27.4288687 Z" id="Shape" fill="#FFFFFF" fill-rule="nonzero"></path>
                    <path d="M113.244094,39.5370551 C113.244094,38.5399431 113.244094,37.6852757 113.362205,36.6881636 C113.480315,35.8334962 113.716535,35.1212733 114.070866,34.4090504 C114.425197,33.8392721 114.897638,33.2694938 115.606299,32.9846047 C116.19685,32.6997155 117.023622,32.4148264 118.086614,32.4148264 C118.677165,32.4148264 119.385827,32.557271 120.212598,32.6997155 C121.03937,32.8421601 121.629921,33.1270493 121.984252,33.554383 C121.748031,34.551495 121.629921,35.2637179 121.511811,35.9759408 C121.393701,36.6881636 121.275591,37.4003865 121.275591,38.255054 C121.15748,39.1097214 121.15748,40.1068334 121.15748,41.24639 C121.15748,42.3859466 121.03937,43.9528369 121.03937,45.8046164 C120.92126,49.5081754 120.80315,52.7844006 120.566929,55.7757367 C120.330709,58.6246281 119.858268,61.6159642 119.149606,64.4648557 C119.149606,64.7497449 119.267717,64.7497449 119.385827,64.7497449 C120.094488,64.1799666 120.80315,63.3252991 121.748031,62.1857425 C122.574803,61.0461859 123.519685,59.7641847 124.464567,58.339739 C125.409449,56.9152932 126.354331,55.3484029 127.299213,53.7815126 C128.244094,52.2146223 129.188976,50.5052874 129.897638,48.9383971 C130.96063,46.6592839 132.141732,43.8103924 133.440945,40.3917226 C134.740157,36.9730528 135.80315,33.2694938 136.748031,29.2810458 C136.984252,29.2810458 137.338583,29.2810458 137.811024,29.4234903 C138.283465,29.5659349 138.637795,29.7083795 139.110236,29.8508241 C139.582677,29.9932686 139.937008,30.2781578 140.291339,30.4206023 C140.645669,30.7054915 140.88189,30.8479361 141,30.9903806 C140.88189,33.2694938 140.409449,35.6910516 139.582677,38.255054 C138.755906,40.6766117 137.692913,43.0981695 136.511811,45.3772827 C135.330709,47.6563959 134.149606,49.7930645 132.732283,51.7872886 C131.433071,53.7815126 130.251969,55.4908475 129.188976,57.0577378 C127.062992,60.0490739 124.818898,62.8979654 122.692913,65.1770786 C120.448819,67.5986364 117.850394,69.8777495 114.897638,72.1568627 C113.716535,71.5870844 112.771654,70.8748616 112.062992,70.0201941 C111.354331,69.1655267 111,68.1684147 111,67.1713026 C111,66.4590798 111.11811,65.7468569 111.354331,64.8921894 C111.590551,64.037522 111.826772,62.8979654 112.181102,61.6159642 C112.535433,60.333963 112.771654,58.6246281 113.007874,56.6304041 C113.244094,54.6361801 113.362205,52.0721777 113.362205,48.9383971 C113.362205,47.0866176 113.362205,45.3772827 113.244094,43.5255032 C113.244094,41.9586129 113.244094,40.5341672 113.244094,39.5370551 Z" id="Path" fill="#FFFFFF"></path>
                    <path d="M165,35.1642879 C164.755869,38.5789872 164.267606,41.4245698 163.413146,43.8433151 C162.558685,46.2620604 161.338028,48.3962474 159.751174,50.2458761 C158.164319,52.0955049 156.333333,53.6605753 154.014085,55.2256458 C151.694836,56.7907163 149.131455,58.0712285 146.201878,59.4940198 C146.201878,59.7785781 146.201878,60.2054155 146.201878,60.4899738 C146.201878,60.9168112 146.201878,61.2013694 146.201878,61.6282068 C146.201878,62.3396025 146.201878,63.0509982 146.323944,63.904673 C146.446009,64.6160686 146.568075,65.3274643 146.812207,66.03886 C147.056338,66.7502557 147.422535,67.1770931 147.788732,67.6039305 C148.15493,68.0307679 148.765258,68.173047 149.375587,68.173047 C150.596244,68.173047 151.816901,67.8884887 153.037559,67.1770931 C154.258216,66.4656974 155.356808,65.7543017 156.455399,64.7583478 C157.553991,63.7623938 158.530516,62.7664399 159.507042,61.6282068 C160.483568,60.4899738 161.338028,59.4940198 162.070423,58.4980659 C162.558685,58.9249033 162.924883,59.4940198 163.29108,59.9208572 C161.215962,63.1932773 158.896714,65.8965809 156.333333,68.0307679 C153.892019,70.1649549 151.450704,71.5877462 149.253521,72.1568627 C146.079812,71.7300253 143.516432,70.307234 141.685446,68.0307679 C139.85446,65.7543017 139,62.908719 139,59.636299 C139,57.3598328 139.244131,55.0833667 139.85446,52.8069005 C140.342723,50.5304344 141.197183,48.2539683 142.051643,46.1197812 C143.028169,43.9855942 144.126761,41.9936864 145.469484,40.0017785 C146.812207,38.1521497 148.15493,36.4448001 149.619718,35.0220088 C151.084507,33.5992175 152.671362,32.4609844 154.13615,31.6073096 C155.723005,30.7536348 157.309859,30.3267974 158.774648,30.3267974 C161.093897,30.7536348 163.169014,32.3187053 165,35.1642879 Z M160.239437,37.8675915 C159.018779,38.1521497 157.676056,38.7212663 156.333333,39.7172202 C154.99061,40.7131742 153.647887,41.9936864 152.549296,43.701036 C151.328638,45.2661064 150.230047,47.2580143 149.253521,49.3922013 C148.276995,51.5263883 147.544601,53.9451336 146.934272,56.3638789 C150.71831,54.2296919 153.769953,51.5263883 156.211268,48.2539683 C158.652582,45.1238273 159.995305,41.566849 160.239437,37.8675915 Z" id="Shape" fill="#FFFFFF" fill-rule="nonzero"></path>
                    <path d="M166,66.9850162 C166.242678,65.4199458 166.606695,63.2857587 167.213389,60.7247343 C167.820084,58.1637099 168.426778,55.3181273 169.276151,52.4725446 C170.125523,49.6269619 170.853556,46.6391001 171.824268,43.6512383 C172.67364,40.6633765 173.523013,38.1023521 174.372385,35.6836068 C174.979079,33.9762572 175.464435,32.695745 175.949791,31.699791 C176.435146,30.7038371 176.920502,29.9924414 177.527197,29.2810458 C178.133891,29.4233249 178.861925,29.565604 179.589958,29.8501623 C180.317992,30.1347206 180.924686,30.4192788 181.65272,30.8461162 C182.259414,31.2729536 182.866109,31.5575119 183.351464,31.9843493 C183.83682,32.4111867 184.200837,32.8380241 184.564854,33.1225824 C183.351464,34.829932 182.259414,36.8218398 181.288703,39.098306 C180.317992,41.3747721 179.34728,44.2203548 178.376569,47.635054 C180.924686,45.0740296 183.108787,42.5130052 185.050209,40.0942599 C186.991632,37.6755147 188.811715,34.9722111 190.51046,32.1266284 C190.753138,31.8420702 191.238494,31.699791 191.966527,31.699791 C192.573222,31.699791 193.301255,31.8420702 193.786611,32.1266284 C194.393305,32.4111867 194.757322,32.695745 195,33.1225824 C194.150628,35.6836068 193.786611,38.3869103 193.786611,40.9479347 C193.786611,43.36668 194.029289,45.0740296 194.635983,46.3545418 C194.635983,46.6391001 194.271967,47.3504958 193.665272,48.2041706 C193.058577,49.2001245 192.451883,50.0537993 191.723849,50.765195 C190.51046,50.0537993 189.297071,48.9155662 188.32636,47.635054 C187.355649,46.3545418 186.627615,44.7894713 186.142259,43.2244009 C183.958159,45.0740296 182.138075,46.7813792 180.560669,48.4887288 C178.983264,50.1960784 177.769874,52.0457072 176.677824,54.1798942 C175.585774,56.3140812 174.615063,58.7328265 173.887029,61.43613 C173.158996,64.1394336 172.430962,67.4118536 171.702929,71.1111111 C171.338912,71.1111111 170.732218,70.8265528 170.246862,70.5419946 C169.640167,70.2574363 169.033473,69.8305989 168.548117,69.4037615 C168.062762,68.9769241 167.456067,68.5500867 166.970711,67.9809702 C166.364017,67.838691 166.121339,67.4118536 166,66.9850162 Z" id="Path" fill="#FFFFFF"></path>
                    <path d="M198.864362,75.0074876 C196.710106,74.2909127 195.154255,73.4310227 194.316489,72.7144477 C193.478723,71.9978727 193,70.9946677 193,69.8481477 C193,68.9882577 193.239362,67.6984227 193.598404,66.1219577 C193.957447,64.5454927 194.675532,62.6823977 195.393617,60.5326727 C196.231383,58.3829478 197.18883,55.9465928 198.265957,53.3669228 C199.343085,50.7872528 200.659574,47.9209528 202.095745,44.9113378 C200.898936,44.9113378 199.821809,44.9113378 198.864362,44.9113378 C197.906915,44.9113378 197.18883,44.9113378 196.590426,44.9113378 C196.829787,44.0514478 197.667553,43.3348728 198.984043,42.7616129 C200.300532,42.1883529 201.976064,41.6150929 204.130319,41.1851479 C205.925532,37.6022729 207.840426,34.1627129 209.875,31.0097829 C211.909574,27.7135379 213.944149,24.703923 215.978723,21.980938 C218.013298,19.257953 220.047872,16.821598 222.202128,14.815188 C224.236702,12.808778 226.271277,11.0889981 228.066489,9.94247806 C228.066489,9.51253306 228.18617,9.22590307 228.18617,8.93927307 C228.18617,8.65264307 228.18617,8.50932807 228.18617,8.36601307 C228.784574,8.36601307 229.742021,8.50932807 230.819149,8.93927307 C231.896277,9.36921807 232.973404,9.79916306 233.930851,10.3724231 C234.888298,10.9456831 235.845745,11.5189431 236.683511,12.092203 C237.521277,12.665463 237.880319,13.095408 238,13.525353 C236.444149,16.678283 235.007979,21.407678 233.571809,27.8568529 C232.135638,34.1627129 230.93883,41.7584079 229.981383,50.6439378 C229.742021,52.7936628 229.50266,55.3733328 229.382979,58.0963178 C229.263298,60.8193027 229.143617,63.9722327 229.143617,67.4117927 C229.143617,68.5583127 229.143617,69.8481477 229.143617,71.1379827 C229.143617,72.4278177 229.143617,73.7176527 229.263298,75.1508026 C229.143617,75.1508026 229.023936,75.2941176 229.023936,75.2941176 C228.904255,75.2941176 228.784574,75.2941176 228.425532,75.2941176 C227.827128,75.2941176 226.989362,75.1508026 226.151596,74.8641726 C225.31383,74.5775427 224.476064,74.2909127 223.638298,74.0042827 C222.800532,73.7176527 222.202128,73.2877077 221.603723,72.8577627 C221.005319,72.4278177 220.646277,71.9978727 220.526596,71.7112427 C220.526596,70.9946677 220.406915,70.2780927 220.406915,69.7048327 C220.406915,68.9882577 220.406915,68.2716827 220.406915,67.5551077 C220.406915,64.2588627 220.526596,60.8193027 220.765957,57.3797428 C221.005319,53.9401828 221.364362,50.3573078 221.843085,46.6311178 C221.244681,46.0578578 220.406915,45.7712278 219.329787,45.7712278 C218.25266,45.7712278 217.055851,45.7712278 215.739362,45.7712278 C214.422872,45.7712278 212.986702,45.7712278 211.550532,45.7712278 C210.114362,45.7712278 208.558511,45.7712278 207.242021,45.7712278 C206.164894,48.2075828 205.087766,50.6439378 204.130319,53.0802928 C203.172872,55.5166478 202.335106,57.9530028 201.617021,60.3893577 C200.779255,62.9690277 200.180851,65.5486977 199.702128,68.1283677 C199.343085,70.2780927 198.984043,72.7144477 198.864362,75.0074876 Z M225.433511,25.563813 C225.672872,24.847238 225.792553,23.700718 226.031915,22.410883 C226.271277,21.121048 226.510638,19.687898 226.75,18.111433 C225.553191,18.541378 224.356383,19.544583 222.920213,20.834418 C221.484043,22.124253 220.047872,23.844033 218.611702,25.707128 C217.175532,27.7135379 215.619681,29.8632629 214.06383,32.2996179 C212.507979,34.7359729 211.071809,37.3156429 209.635638,40.0386279 C213.465426,39.6086829 217.893617,39.3220529 222.800532,39.3220529 C223.159574,37.0290129 223.518617,34.7359729 223.99734,32.4429329 C224.476064,30.2932079 224.954787,28.0001679 225.433511,25.563813 Z" id="Shape" fill="#F9A12D" fill-rule="nonzero"></path>
                    <path d="M242,63.880289 C242,61.8575851 242.240838,59.2569659 242.842932,56.0784314 C243.324607,52.8998968 244.04712,49.4324045 244.890052,45.8204334 C245.732984,42.2084623 246.696335,38.3075335 247.780105,34.5510836 C248.863874,30.7946336 250.068063,27.0381837 251.151832,23.7151703 C252.356021,20.3921569 253.439791,17.3581011 254.52356,14.9019608 C255.60733,12.3013416 256.570681,10.5675955 257.534031,9.41176471 C258.015707,9.41176471 258.617801,9.70072239 259.340314,9.98968008 C260.062827,10.2786378 260.905759,10.7120743 261.628272,11.2899897 C262.471204,11.7234262 263.073298,12.3013416 263.795812,12.879257 C264.397906,13.4571723 264.879581,14.0350877 265,14.4685243 C263.675393,15.9133127 262.350785,18.0804954 261.026178,20.9700722 C259.701571,23.8596491 258.497382,27.1826625 257.172775,30.9391125 C255.968586,34.6955624 254.764398,38.5964912 253.801047,42.6418989 C252.717277,46.8317853 251.874346,50.7327141 251.031414,54.6336429 C250.188482,58.5345717 249.586387,62.1465428 249.225131,65.4695562 C248.743455,68.7925697 248.623037,71.5376677 248.623037,73.5603715 C248.623037,74.4272446 248.743455,75.1496388 248.863874,75.2941176 C247.900524,75.2941176 247.057592,75.1496388 246.696335,74.7162023 C246.21466,74.2827657 245.853403,73.993808 245.612565,73.5603715 C245.371728,73.126935 245.13089,72.6934985 244.890052,72.2600619 C244.649215,71.8266254 244.408377,71.5376677 243.926702,71.24871 C243.565445,71.1042312 243.324607,70.6707946 243.08377,70.0928793 C242.842932,69.5149639 242.602094,68.7925697 242.481675,68.0701754 C242.361257,67.3477812 242.240838,66.625387 242.120419,65.7585139 C242,65.0361197 242,64.3137255 242,63.880289 Z" id="Path" fill="#F9A12D"></path>
                </g>
            </g>
        </g>
    </g>
</svg>