<?xml version="1.0" encoding="UTF-8"?>
<svg width="25px" height="24px" viewBox="0 0 25 24" version="1.1" xmlns="http://www.w3.org/2000/svg" xmlns:xlink="http://www.w3.org/1999/xlink">
    <!-- Generator: Sketch 52.6 (67491) - http://www.bohemiancoding.com/sketch -->
    <title>gift</title>
    <desc>Created with Sketch.</desc>
    <g id="Loyalty" stroke="none" stroke-width="1" fill="none" fill-rule="evenodd">
        <g id="Loyalty-list" transform="translate(-18.000000, -474.000000)" fill="#ffffff">
            <g id="gift" transform="translate(18.000000, 474.000000)">
                <path d="M23.6662572,5.40697995 L20.1983793,5.40697995 C20.7645425,4.81158118 21.111174,4.01686355 21.111174,3.14489092 C21.111174,3.14489092 21.1104905,3.01179063 21.1091721,2.97380258 C21.0717208,1.89772706 20.466788,0.938078757 19.4910537,0.406530226 C18.4955928,-0.135628434 17.3097018,-0.135486334 16.3188307,0.407051259 L14.7416792,1.2704979 C13.7539331,1.81128292 12.9809336,2.62636821 12.5000244,3.58478498 C12.0191153,2.62636821 11.2461157,1.81128292 10.2584185,1.27054526 L8.68126696,0.407003893 C7.69039588,-0.135486334 6.50450489,-0.1356758 5.50904396,0.40648286 C4.53330964,0.937984024 3.92837681,1.89767969 3.89092557,2.97375521 C3.88960721,3.01174327 3.88892361,3.14484355 3.88892361,3.14484355 C3.88892361,4.01681618 4.23555515,4.81153381 4.80171836,5.40697995 L1.33379167,5.40697995 C0.598341012,5.40697995 0,5.98745823 0,6.70089469 L0,9.77186399 C0,10.4853005 0.598341012,11.0657314 1.33379167,11.0657314 L1.94443739,11.0657314 L1.94443739,22.7061326 C1.94443739,23.4195691 2.5427784,24 3.27822906,24 L21.7217709,24 C22.4572216,24 23.0555626,23.4195691 23.0555626,22.7061326 L23.0555626,11.065684 L23.6662083,11.065684 C24.401659,11.065684 25,10.4852531 25,9.77181662 L25,6.70084733 C25.0000488,5.98745823 24.4017078,5.40697995 23.6662572,5.40697995 Z M15.287774,2.20916277 L16.8649255,1.34571613 C17.5147803,0.98989787 18.293151,0.99018207 18.9470585,1.34637927 C19.5813371,1.69182424 19.9744531,2.3137957 19.9986719,3.01022753 C19.9995508,3.03608972 19.9999902,3.14489092 19.9999902,3.14489092 C19.9999902,4.39224424 18.9538944,5.40702732 17.6680521,5.40702732 L13.0873302,5.40702732 C13.2538833,4.0737509 14.065213,2.87845352 15.287774,2.20916277 Z M5.00132813,3.01018017 C5.02559575,2.3137957 5.41871176,1.69182424 6.05294151,1.3463319 C6.38018824,1.1680912 6.73839207,1.0790419 7.09620527,1.0790419 C7.45348135,1.0790419 7.81036682,1.16790174 8.13502565,1.34571613 L9.71217717,2.20916277 C10.9347382,2.87845352 11.7460679,4.0737509 11.9125721,5.40693259 L7.33185026,5.40693259 C6.04605673,5.40693259 4.99996094,4.39214951 4.99996094,3.14484355 C5.00000977,3.14489092 5.00044922,3.03604236 5.00132813,3.01018017 Z M10.0000684,12.7051858 L7.71285686,12.7051858 C7.40602032,12.7051858 7.15728937,12.9465189 7.15728937,13.2441235 C7.15728937,13.5417282 7.40602032,13.7830613 7.71285686,13.7830613 L10.0000684,13.7830613 L10.0000684,22.9221245 L3.27822906,22.9221245 C3.15542608,22.9221245 3.05557237,22.8252597 3.05557237,22.70618 L3.05557237,11.065684 L10.0000684,11.065684 L10.0000684,12.7051858 Z M10.0000684,9.98790327 L1.33379167,9.98790327 C1.21098869,9.98785591 1.11113498,9.89099111 1.11113498,9.77191136 L1.11113498,6.70094206 C1.11113498,6.58176757 1.21103752,6.48490278 1.33379167,6.48490278 L10.0000684,6.48490278 L10.0000684,9.98790327 Z M13.8887967,22.9220772 L11.1112033,22.9220772 L11.1112033,6.48480804 L13.8887967,6.48480804 L13.8887967,22.9220772 Z M21.9444765,22.7061326 C21.9444765,22.8252597 21.8445739,22.9221245 21.7218198,22.9221245 L14.9999316,22.9221245 L14.9999316,13.7830139 L17.1168791,13.7830139 C17.4237157,13.7830139 17.6724466,13.5416808 17.6724466,13.2440762 C17.6724466,12.9464715 17.4237157,12.7051384 17.1168791,12.7051384 L14.9999316,12.7051384 L14.9999316,11.065684 L21.9445253,11.065684 L21.9445253,22.7061326 L21.9444765,22.7061326 Z M23.8889138,9.77191136 C23.8889138,9.89099111 23.7890113,9.98790327 23.6662572,9.98790327 L14.9999316,9.98790327 L14.9999316,6.48485541 L23.666306,6.48485541 C23.7890601,6.48485541 23.8889627,6.58176757 23.8889627,6.70089469 L23.8889627,9.77191136 L23.8889138,9.77191136 Z" id="Shape" fill-rule="nonzero"></path>
                <path d="M20.0828114,14.1818182 L20.1345799,14.1818182 C20.4204439,14.1818182 20.6521739,13.9375669 20.6521739,13.6363636 C20.6521739,13.3351604 20.4204439,13.0909091 20.1345799,13.0909091 L20.0828114,13.0909091 C19.7969474,13.0909091 19.5652174,13.3351604 19.5652174,13.6363636 C19.5652629,13.9375669 19.7969474,14.1818182 20.0828114,14.1818182 Z" id="Path"></path>
                <path d="M4.8654201,14.1818182 L4.9171886,14.1818182 C5.20305261,14.1818182 5.43478261,13.9375669 5.43478261,13.6363636 C5.43478261,13.3351604 5.20300712,13.0909091 4.9171886,13.0909091 L4.8654201,13.0909091 C4.57955608,13.0909091 4.34782609,13.3351604 4.34782609,13.6363636 C4.34782609,13.9375669 4.57955608,14.1818182 4.8654201,14.1818182 Z" id="Path"></path>
            </g>
        </g>
    </g>
</svg>
