<?xml version="1.0" encoding="UTF-8"?>
<svg width="22px" height="29px" viewBox="0 0 22 29" version="1.1" xmlns="http://www.w3.org/2000/svg" xmlns:xlink="http://www.w3.org/1999/xlink">
    <!-- Generator: Sketch 52.6 (67491) - http://www.bohemiancoding.com/sketch -->
    <title>list (1)</title>
    <desc>Created with Sketch.</desc>
    <g id="Loyalty" stroke="none" stroke-width="1" fill="none" fill-rule="evenodd">
        <g id="Create-Loyalty" transform="translate(-19.000000, -662.000000)" fill="#FFFFFF">
            <g id="list-(1)" transform="translate(19.000000, 662.000000)">
                <path d="M17.6331658,19.3556332 L12.7688442,19.3556332 C12.3109347,19.3556332 11.9396985,19.7268693 11.9396985,20.1847789 C11.9396985,20.6426884 12.3109347,21.0139246 12.7688442,21.0139246 L17.6331658,21.0139246 C18.0910754,21.0139246 18.4623116,20.6426884 18.4623116,20.1847789 C18.4623116,19.7268693 18.0910754,19.3556332 17.6331658,19.3556332 Z" id="Path"></path>
                <path d="M17.6331658,12.8766332 L12.7688442,12.8766332 C12.3109347,12.8766332 11.9396985,13.2478693 11.9396985,13.7057789 C11.9396985,14.1636884 12.3109347,14.5349246 12.7688442,14.5349246 L17.6331658,14.5349246 C18.0910754,14.5349246 18.4623116,14.1636884 18.4623116,13.7057789 C18.4623116,13.2478693 18.0910754,12.8766332 17.6331658,12.8766332 Z" id="Path"></path>
                <path d="M7.99379397,11.7454573 C7.64229146,11.451995 7.11943216,11.4989246 6.82591457,11.8504271 L5.4258191,13.5270704 L5.10814573,12.8930503 C4.90301508,12.4836181 4.40486432,12.3180101 3.99543216,12.523196 C3.586,12.7283266 3.42044724,13.2265327 3.62557789,13.6359095 L4.51,15.4011055 C4.63520101,15.6510101 4.8779196,15.8210402 5.15562814,15.8533216 C5.18768844,15.8570251 5.21958291,15.8588492 5.25142211,15.8588492 C5.49546734,15.8588492 5.72923116,15.751005 5.88776382,15.5611859 L8.0988191,12.9134472 C8.39222613,12.5618894 8.34524121,12.0389749 7.99379397,11.7454573 Z" id="Path"></path>
                <path d="M7.05984422,17.8926332 C6.68717085,17.6265327 6.16939698,17.7128191 5.90318593,18.0853819 L5.47236181,18.6885578 L5.04153769,18.0853819 C4.77538191,17.7127638 4.25749749,17.6264774 3.8848794,17.8926332 C3.51226131,18.1587889 3.42597487,18.6766734 3.69213065,19.0492915 L4.45339698,20.1150754 L3.69213065,21.1808593 C3.42597487,21.5534774 3.51226131,22.0713065 3.8848794,22.3375176 C4.03097487,22.4418794 4.19929146,22.4920151 4.36611558,22.4920151 C4.62480905,22.4920151 4.87968844,22.3712915 5.04153769,22.1447688 L5.47236181,21.5416482 L5.90318593,22.1448241 C6.06503518,22.371402 6.31991457,22.4920704 6.57860804,22.4920704 C6.74537688,22.4920704 6.91374874,22.4418794 7.05984422,22.3375729 C7.43246231,22.0714171 7.51874874,21.5535327 7.25259296,21.1809146 L6.49132663,20.1150754 L7.25259296,19.0492915 C7.51874874,18.6766734 7.43246231,18.1588442 7.05984422,17.8926332 Z" id="Path"></path>
                <path d="M18.9045226,2.8438593 L18.9045226,2.48743719 C18.9045226,1.11586432 17.7886583,0 16.4170854,0 L5.58291457,0 C4.21134171,0 3.09547739,1.11586432 3.09547739,2.48743719 L3.09547739,2.8438593 C1.30877889,3.31171859 0,4.94419598 0,6.85427136 L0,24.1557789 C0,26.4417337 1.85977387,28.3015075 4.14572864,28.3015075 L17.8542714,28.3015075 C20.1402261,28.3015075 22,26.4417337 22,24.1557789 L22,6.85427136 C22,4.94419598 20.6912211,3.31171859 18.9045226,2.8438593 Z M4.75376884,2.48743719 C4.75376884,2.03024623 5.12572362,1.65829146 5.58291457,1.65829146 L16.4170854,1.65829146 C16.8742764,1.65829146 17.2462312,2.03024623 17.2462312,2.48743719 L17.2462312,4.53266332 C17.2462312,4.98985427 16.8742764,5.36180905 16.4170854,5.36180905 L5.58291457,5.36180905 C5.12572362,5.36180905 4.75376884,4.98985427 4.75376884,4.53266332 L4.75376884,2.48743719 Z M20.3417085,24.1557789 C20.3417085,25.5273518 19.2258442,26.6432161 17.8542714,26.6432161 L4.14572864,26.6432161 C2.77415578,26.6432161 1.65829146,25.5273518 1.65829146,24.1557789 L1.65829146,6.85427136 C1.65829146,5.86311055 2.24549246,4.99692965 3.09719095,4.59927136 C3.13267839,5.94011055 4.23367337,7.0201005 5.58291457,7.0201005 L16.4170854,7.0201005 C17.7663266,7.0201005 18.8673216,5.94011055 18.902809,4.59927136 C19.7545075,4.99692965 20.3417085,5.86311055 20.3417085,6.85427136 L20.3417085,24.1557789 Z" id="Shape" fill-rule="nonzero"></path>
            </g>
        </g>
    </g>
</svg>