<?xml version="1.0" encoding="UTF-8"?>
<svg width="24px" height="24px" viewBox="0 0 24 24" version="1.1" xmlns="http://www.w3.org/2000/svg" xmlns:xlink="http://www.w3.org/1999/xlink">
    <!-- Generator: Sketch 52.6 (67491) - http://www.bohemiancoding.com/sketch -->
    <title>Page 1</title>
    <desc>Created with Sketch.</desc>
    <g id="Loyalty" stroke="none" stroke-width="1" fill="none" fill-rule="evenodd">
        <g id="Loyalty-list" transform="translate(-16.000000, -981.000000)" fill="#FFFFFF">
            <g id="Page-1" transform="translate(16.000000, 981.000000)">
                <polygon id="Fill-1" points="12 18 18 12 12 6 12 10.5 0 10.5 0 13.5 12 13.5"></polygon>
                <path d="M22.5,24 L9,24 C8.1,24 7.5,23.4 7.5,22.5 L7.5,18 L10.5,18 L10.5,21 L21,21 L21,3 L10.5,3 L10.5,6 L7.5,6 L7.5,1.5 C7.5,0.6 8.1,0 9,0 L22.5,0 C23.4,0 24,0.6 24,1.5 L24,22.5 C24,23.4 23.4,24 22.5,24 Z" id="Fill-3"></path>
            </g>
        </g>
    </g>
</svg>