<?xml version="1.0" encoding="UTF-8"?>
<svg width="22px" height="21px" viewBox="0 0 22 21" version="1.1" xmlns="http://www.w3.org/2000/svg" xmlns:xlink="http://www.w3.org/1999/xlink">
    <!-- Generator: Sketch 52.6 (67491) - http://www.bohemiancoding.com/sketch -->
    <title>list</title>
    <desc>Created with Sketch.</desc>
    <g id="Page-3" stroke="none" stroke-width="1" fill="none" fill-rule="evenodd">
        <g id="list" fill="#FFFFFF">
            <path d="M21.1770881,2.07389824 L8.18740117,2.07389824 C7.71506849,2.07389824 7.40013699,2.38878669 7.40013699,2.86116243 C7.40013699,3.33353816 7.79376908,3.64842661 8.18740117,3.64842661 L21.1770881,3.64842661 C21.6494207,3.64842661 21.9643523,3.33353816 21.9643523,2.86116243 C21.9643523,2.38878669 21.6494638,2.07389824 21.1770881,2.07389824 Z" id="Path"></path>
            <path d="M21.2557886,9.6315225 L8.18740117,9.6315225 C7.71506849,9.6315225 7.40013699,9.94641096 7.40013699,10.4187867 C7.40013699,10.8911624 7.71502544,11.2060509 8.18740117,11.2060509 L21.1770881,11.2060509 C21.6494207,11.2060509 21.9643523,10.8911624 21.9643523,10.4187867 C21.9643523,9.94641096 21.6494638,9.6315225 21.2557886,9.6315225 Z" id="Path"></path>
            <path d="M21.2557886,17.1891468 L8.18740117,17.1891468 C7.71506849,17.1891468 7.40013699,17.5040352 7.40013699,17.976411 C7.40013699,18.4487436 7.71502544,18.7636751 8.18740117,18.7636751 L21.1770881,18.7636751 C21.6494207,18.7636751 21.9643523,18.4487867 21.9643523,17.976411 C21.9643523,17.5040352 21.6494638,17.1891468 21.2557886,17.1891468 Z" id="Path"></path>
            <path d="M2.83412524,0.0270802348 C1.25959687,0.0270802348 0,1.2866771 0,2.86116243 C0,4.43564775 1.25959687,5.69528767 2.83412524,5.69528767 C4.40861057,5.69528767 5.66825049,4.4356908 5.66825049,2.86116243 C5.66820744,1.2866771 4.40861057,0.0270802348 2.83412524,0.0270802348 Z M2.83412524,4.19950294 C2.12556164,4.19950294 1.57452838,3.64846967 1.57452838,2.93990607 C1.57452838,2.23134247 2.1256047,1.6803092 2.83412524,1.6803092 C3.54268885,1.6803092 4.09372211,2.23138552 4.09372211,2.93990607 C4.09372211,3.56972603 3.54264579,4.19950294 2.83412524,4.19950294 Z" id="Shape" fill-rule="nonzero"></path>
            <path d="M2.83412524,7.58466145 C1.25959687,7.58466145 0,8.84430137 0,10.4187867 C0,11.993272 1.25959687,13.2529119 2.83412524,13.2529119 C4.40861057,13.2529119 5.66825049,11.9933151 5.66825049,10.4187867 C5.66825049,8.84425832 4.40861057,7.58466145 2.83412524,7.58466145 Z M2.83412524,11.6783836 C2.12556164,11.6783836 1.57452838,11.1273072 1.57452838,10.4187867 C1.57452838,9.71026614 2.1256047,9.15918982 2.83412524,9.15918982 C3.54268885,9.15918982 4.09372211,9.71022309 4.09372211,10.4187867 C4.09372211,11.1273503 3.54264579,11.6783836 2.83412524,11.6783836 Z" id="Shape" fill-rule="nonzero"></path>
            <path d="M2.83412524,15.0635851 C1.25959687,15.0635851 0,16.323182 0,17.8977104 C0,19.4722387 1.25959687,20.7318356 2.83412524,20.7318356 C4.40861057,20.7318356 5.66825049,19.4722387 5.66825049,17.8977104 C5.66820744,16.4018826 4.40861057,15.0635851 2.83412524,15.0635851 Z M2.83412524,19.2360078 C2.12556164,19.2360078 1.57452838,18.6849315 1.57452838,17.976411 C1.57452838,17.2678904 2.1256047,16.7168141 2.83412524,16.7168141 C3.54268885,16.7168141 4.09372211,17.2678904 4.09372211,17.976411 C4.09372211,18.6849315 3.54264579,19.2360078 2.83412524,19.2360078 Z" id="Shape" fill-rule="nonzero"></path>
        </g>
    </g>
</svg>