<?xml version="1.0" encoding="UTF-8"?>
<svg width="25px" height="20px" viewBox="0 0 25 20" version="1.1" xmlns="http://www.w3.org/2000/svg" xmlns:xlink="http://www.w3.org/1999/xlink">
    <!-- Generator: Sketch 52.6 (67491) - http://www.bohemiancoding.com/sketch -->
    <title>ico_notifications</title>
    <desc>Created with Sketch.</desc>
    <g id="Loyalty" stroke="none" stroke-width="1" fill="none" fill-rule="evenodd">
        <g id="Loyalty-list" transform="translate(-18.000000, -416.000000)" fill="#FFFFFF">
            <g id="Nav" transform="translate(-4.000000, 0.000000)">
                <g id="Notifications" transform="translate(4.000000, 396.000000)">
                    <g id="ico_notifications" transform="translate(18.000000, 20.000000)">
                        <path d="M23.0117,9 C23.0117,9.552 22.5627,10 22.0117,10 L22.0117,7 C22.5627,7 23.0117,7.449 23.0117,8 L23.0117,9 Z M22.0117,6 L22.0117,0.5 C22.0117,0.33 21.9247,0.172 21.7807,0.08 C21.6387,-0.012 21.4587,-0.025 21.3047,0.045 L20.3767,0.47 C17.2387,1.914 14.2287,3.291 9.0117,3.795 C9.0117,4.094 9.0077,12.93 9.0177,13.206 C14.2307,13.711 17.2397,15.088 20.3787,16.531 C20.5607,16.614 21.3327,17 21.5117,17 C21.6057,17 21.6997,16.974 21.7807,16.92 C21.9247,16.828 22.0117,16.67 22.0117,16.5 L22.0117,11 C23.1147,11 24.0117,10.102 24.0117,9 L24.0117,8 C24.0117,6.898 23.1147,6 22.0117,6 L22.0117,6 Z" id="Fill-1475"></path>
                        <path d="M3.5117,4 C1.5807,4 0.0117,5.57 0.0117,7.5 L0.0117,9.5 C0.0117,11.431 1.5807,13 3.5117,13 L4.5117,13 C5.0297,13 5.5287,13.007 6.0117,13.021 L6.0117,3.979 C5.5287,3.993 5.0297,4 4.5117,4 L3.5117,4 Z" id="Fill-1476"></path>
                        <path d="M11.7344,19.0527 C11.4284,18.8997 11.1384,18.7247 10.8654,18.5327 C9.2134,17.3727 8.1704,15.5427 8.0274,13.5057 C8.0194,13.3787 8.0154,13.2507 8.0144,13.1227 C8.0134,13.0907 8.0114,13.0597 8.0114,13.0287 L8.0114,3.4997 C8.0114,3.2247 7.7874,2.9997 7.5114,2.9997 C7.2354,2.9997 7.0114,3.2247 7.0114,3.4997 L7.0114,13.0287 C7.0114,14.2577 7.2994,15.4347 7.8244,16.4857 C7.9274,16.6947 8.0374,16.9007 8.1604,17.0987 C8.4374,17.5477 8.7614,17.9677 9.1274,18.3517 C9.7364,18.9937 10.4634,19.5357 11.2874,19.9477 C11.4594,20.0317 11.6694,20.0067 11.8264,19.8827 C11.8324,19.8777 11.8384,19.8737 11.8434,19.8687 C12.1194,19.6237 12.0384,19.2047 11.7344,19.0527" id="Fill-1477"></path>
                    </g>
                </g>
            </g>
        </g>
    </g>
</svg>