<?xml version="1.0" encoding="UTF-8"?>
<svg width="24px" height="26px" viewBox="0 0 24 26" version="1.1" xmlns="http://www.w3.org/2000/svg" xmlns:xlink="http://www.w3.org/1999/xlink">
    <!-- Generator: Sketch 52.6 (67491) - http://www.bohemiancoding.com/sketch -->
    <title>history</title>
    <desc>Created with Sketch.</desc>
    <g id="Page-3" stroke="none" stroke-width="1" fill="none" fill-rule="evenodd">
        <g id="history" fill="#FFFFFF">
            <path d="M0,23.518931 C0.0013363029,24.6992071 0.957808463,25.6556793 2.13808463,25.6570156 L17.9599109,25.6570156 C21.2659777,25.6573363 23.9463341,22.9775145 23.9466548,19.6714477 C23.9468686,17.3588953 22.6150557,15.2530958 20.5256125,14.262147 L20.5256125,5.55902004 C20.5256125,5.44559465 20.4805523,5.3368196 20.4003742,5.25664143 L15.268971,0.125238307 C15.1887929,0.0450601336 15.0800178,-2.84217094e-14 14.9665924,-2.84217094e-14 L2.13808463,-2.84217094e-14 C0.957808463,0.0013363029 0.0013363029,0.957808463 0,2.13808463 L0,23.518931 Z M23.091314,19.6703786 C23.091314,22.5043563 20.7938886,24.8017817 17.9599109,24.8017817 C15.1259332,24.8017817 12.8285078,22.5043563 12.8285078,19.6703786 C12.8285078,16.8364009 15.1259332,14.5389755 17.9599109,14.5389755 C20.7926058,14.5421826 23.0881069,16.8376837 23.091314,19.6703786 Z M15.3942094,1.45993764 L19.0656748,5.13140312 L16.6770601,5.13140312 C15.9688731,5.13060134 15.3950111,4.55673942 15.3942094,3.84855234 L15.3942094,1.45993764 Z M0.855233853,2.13808463 C0.856035635,1.429951 1.429951,0.856035635 2.13808463,0.855233853 L14.5389755,0.855233853 L14.5389755,3.84855234 C14.5403118,5.02882851 15.496784,5.98530067 16.6770601,5.98663697 L19.6703786,5.98663697 L19.6703786,13.9331492 C16.502539,12.9879555 13.1683029,14.7897194 12.2230557,17.9575056 C11.4412116,20.5778886 12.5345746,23.394922 14.879412,24.8017817 L2.13808463,24.8017817 C1.429951,24.80098 0.856035635,24.2270646 0.855233853,23.518931 L0.855233853,2.13808463 Z" id="Shape" fill-rule="nonzero"></path>
            <path d="M6.84187082,8.1247216 C6.84187082,8.36087305 7.0333363,8.55233853 7.26948775,8.55233853 L17.532294,8.55233853 C17.7684454,8.55233853 17.9599109,8.36087305 17.9599109,8.1247216 C17.9599109,7.88857016 17.7684454,7.69710468 17.532294,7.69710468 L7.26948775,7.69710468 C7.0333363,7.69710468 6.84187082,7.88857016 6.84187082,8.1247216 Z" id="Path"></path>
            <path d="M2.99331849,11.1180401 L11.545657,11.1180401 C11.7818085,11.1180401 11.9732739,10.9265746 11.9732739,10.6904232 C11.9732739,10.4542717 11.7818085,10.2628062 11.545657,10.2628062 L2.99331849,10.2628062 C2.75716704,10.2628062 2.56570156,10.4542717 2.56570156,10.6904232 C2.56570156,10.9265746 2.75716704,11.1180401 2.99331849,11.1180401 Z" id="Path"></path>
            <path d="M13.2561247,12.8285078 L9.83518931,12.8285078 C9.59903786,12.8285078 9.40757238,13.0199733 9.40757238,13.2561247 C9.40757238,13.4922762 9.59903786,13.6837416 9.83518931,13.6837416 L13.2561247,13.6837416 C13.4922762,13.6837416 13.6837416,13.4922762 13.6837416,13.2561247 C13.6837416,13.0199733 13.4922762,12.8285078 13.2561247,12.8285078 Z" id="Path"></path>
            <path d="M2.99331849,16.2494432 L10.6904232,16.2494432 C10.9265746,16.2494432 11.1180401,16.0579777 11.1180401,15.8218263 C11.1180401,15.5856748 10.9265746,15.3942094 10.6904232,15.3942094 L2.99331849,15.3942094 C2.75716704,15.3942094 2.56570156,15.5856748 2.56570156,15.8218263 C2.56570156,16.0579777 2.75716704,16.2494432 2.99331849,16.2494432 Z" id="Path"></path>
            <path d="M2.99331849,8.55233853 L5.55902004,8.55233853 C5.79517149,8.55233853 5.98663697,8.36087305 5.98663697,8.1247216 C5.98663697,7.88857016 5.79517149,7.69710468 5.55902004,7.69710468 L2.99331849,7.69710468 C2.75716704,7.69710468 2.56570156,7.88857016 2.56570156,8.1247216 C2.56570156,8.36087305 2.75716704,8.55233853 2.99331849,8.55233853 Z" id="Path"></path>
            <path d="M17.532294,10.2628062 L13.2561247,10.2628062 C13.0199733,10.2628062 12.8285078,10.4542717 12.8285078,10.6904232 C12.8285078,10.9265746 13.0199733,11.1180401 13.2561247,11.1180401 L17.532294,11.1180401 C17.7684454,11.1180401 17.9599109,10.9265746 17.9599109,10.6904232 C17.9599109,10.4542717 17.7684454,10.2628062 17.532294,10.2628062 Z" id="Path"></path>
            <path d="M2.99331849,13.6837416 L8.1247216,13.6837416 C8.36087305,13.6837416 8.55233853,13.4922762 8.55233853,13.2561247 C8.55233853,13.0199733 8.36087305,12.8285078 8.1247216,12.8285078 L2.99331849,12.8285078 C2.75716704,12.8285078 2.56570156,13.0199733 2.56570156,13.2561247 C2.56570156,13.4922762 2.75716704,13.6837416 2.99331849,13.6837416 Z" id="Path"></path>
            <path d="M9.83518931,20.5256125 L8.1247216,20.5256125 C7.88857016,20.5256125 7.69710468,20.717078 7.69710468,20.9532294 C7.69710468,21.1893808 7.88857016,21.3808463 8.1247216,21.3808463 L9.83518931,21.3808463 C10.0713408,21.3808463 10.2628062,21.1893808 10.2628062,20.9532294 C10.2628062,20.717078 10.0713408,20.5256125 9.83518931,20.5256125 Z" id="Path"></path>
            <path d="M2.99331849,21.3808463 L6.4142539,21.3808463 C6.65040535,21.3808463 6.84187082,21.1893808 6.84187082,20.9532294 C6.84187082,20.717078 6.65040535,20.5256125 6.4142539,20.5256125 L2.99331849,20.5256125 C2.75716704,20.5256125 2.56570156,20.717078 2.56570156,20.9532294 C2.56570156,21.1893808 2.75716704,21.3808463 2.99331849,21.3808463 Z" id="Path"></path>
            <path d="M2.99331849,18.8151448 L5.55902004,18.8151448 C5.79517149,18.8151448 5.98663697,18.6236793 5.98663697,18.3875278 C5.98663697,18.1513764 5.79517149,17.9599109 5.55902004,17.9599109 L2.99331849,17.9599109 C2.75716704,17.9599109 2.56570156,18.1513764 2.56570156,18.3875278 C2.56570156,18.6236793 2.75716704,18.8151448 2.99331849,18.8151448 Z" id="Path"></path>
            <path d="M2.99331849,5.98663697 L8.1247216,5.98663697 C8.36087305,5.98663697 8.55233853,5.79517149 8.55233853,5.55902004 C8.55233853,5.3228686 8.36087305,5.13140312 8.1247216,5.13140312 L2.99331849,5.13140312 C2.75716704,5.13140312 2.56570156,5.3228686 2.56570156,5.55902004 C2.56570156,5.79517149 2.75716704,5.98663697 2.99331849,5.98663697 Z" id="Path"></path>
            <path d="M9.83518931,17.9599109 L7.26948775,17.9599109 C7.0333363,17.9599109 6.84187082,18.1513764 6.84187082,18.3875278 C6.84187082,18.6236793 7.0333363,18.8151448 7.26948775,18.8151448 L9.83518931,18.8151448 C10.0713408,18.8151448 10.2628062,18.6236793 10.2628062,18.3875278 C10.2628062,18.1513764 10.0713408,17.9599109 9.83518931,17.9599109 Z" id="Path"></path>
            <path d="M15.548098,16.7761604 C15.3666281,16.9273229 15.3420935,17.1969889 15.4932561,17.3784053 C15.4932561,17.3784053 15.4932561,17.3784588 15.4933096,17.3784588 C15.4933096,17.3784588 17.1146726,19.326735 17.6297906,19.9422361 C17.6816927,20.004294 17.7664143,20.0765078 17.9147439,20.0956437 C17.9297105,20.0975679 17.9448374,20.0979955 17.9599109,20.0979955 L20.9532294,20.0979955 C21.1893808,20.0979955 21.3808463,19.9065301 21.3808463,19.6703786 C21.3808463,19.4342272 21.1893808,19.2427617 20.9532294,19.2427617 L18.160196,19.2427617 L16.1503964,16.8308953 C15.9992339,16.6494788 15.7295679,16.6249443 15.548098,16.7761604 Z" id="Path"></path>
        </g>
    </g>
</svg>