<?xml version="1.0" encoding="UTF-8"?>
<svg width="24px" height="24px" viewBox="0 0 24 24" version="1.1" xmlns="http://www.w3.org/2000/svg" xmlns:xlink="http://www.w3.org/1999/xlink">
    <!-- Generator: Sketch 52.6 (67491) - http://www.bohemiancoding.com/sketch -->
    <title>ico_settings</title>
    <desc>Created with Sketch.</desc>
    <g id="Loyalty" stroke="none" stroke-width="1" fill="none" fill-rule="evenodd">
        <g id="Loyalty-list" transform="translate(-19.000000, -532.000000)" fill="#FFFFFF">
            <g id="Nav" transform="translate(-4.000000, 0.000000)">
                <g id="Settings" transform="translate(4.000000, 515.000000)">
                    <g id="ico_settings" transform="translate(19.000000, 17.000000)">
                        <path d="M8.5936,19 C6.6636,19 5.0936,17.43 5.0936,15.5 C5.0936,13.57 6.6636,12 8.5936,12 C10.5236,12 12.0936,13.57 12.0936,15.5 C12.0936,17.43 10.5236,19 8.5936,19 M16.7796,17.334 L15.5096,16.603 C15.5656,16.243 15.5936,15.872 15.5936,15.5 C15.5936,15.135 15.5636,14.766 15.5056,14.397 L16.7716,13.666 C17.0106,13.527 17.0926,13.222 16.9546,12.982 L14.9546,9.518 C14.8876,9.402 14.7776,9.318 14.6476,9.284 C14.5196,9.249 14.3816,9.269 14.2666,9.337 L13.0346,10.065 C12.4806,9.594 11.9126,9.217 11.1646,8.952 L11.1646,7.5 C11.1646,7.224 10.9406,7 10.6646,7 L6.6646,7 C6.3896,7 6.1646,7.224 6.1646,7.5 L6.1646,8.951 C5.4646,9.195 4.8446,9.553 4.2206,10.069 L2.9306,9.334 C2.6906,9.196 2.3886,9.279 2.2506,9.517 L0.2416,12.982 C0.1746,13.096 0.1556,13.232 0.1906,13.361 C0.2246,13.489 0.3086,13.599 0.4236,13.665 L1.6856,14.397 C1.6266,14.768 1.5966,15.137 1.5966,15.5 C1.5966,15.868 1.6256,16.238 1.6826,16.603 L0.4156,17.334 C0.1766,17.473 0.0946,17.778 0.2326,18.018 L2.2316,21.482 C2.3696,21.72 2.6726,21.803 2.9106,21.668 L4.2186,20.93 C4.8426,21.447 5.4626,21.805 6.1646,22.05 L6.1646,23.5 C6.1646,23.776 6.3896,24 6.6646,24 L10.6646,24 C10.9406,24 11.1646,23.776 11.1646,23.5 L11.1646,22.049 C11.9126,21.783 12.4816,21.405 13.0376,20.934 L14.2866,21.664 C14.4016,21.731 14.5386,21.751 14.6676,21.716 C14.7966,21.682 14.9056,21.598 14.9726,21.482 L16.9636,18.017 C17.1006,17.777 17.0186,17.473 16.7796,17.334" id="Fill-72"></path>
                        <path d="M19.0936,7 C17.9916,7 17.0936,6.103 17.0936,5 C17.0936,3.897 17.9916,3 19.0936,3 C20.1966,3 21.0936,3.897 21.0936,5 C21.0936,6.103 20.1966,7 19.0936,7 M23.7486,5.951 L23.0566,5.552 C23.0816,5.37 23.0936,5.185 23.0936,5 C23.0936,4.818 23.0806,4.633 23.0536,4.446 L23.7406,4.049 C23.9796,3.911 24.0616,3.606 23.9246,3.367 L22.9246,1.634 C22.8566,1.518 22.7466,1.434 22.6166,1.399 C22.4866,1.365 22.3486,1.385 22.2336,1.455 L21.5836,1.845 C21.3006,1.622 20.9906,1.439 20.6646,1.3 L20.6646,0.5 C20.6646,0.224 20.4406,0 20.1646,0 L18.1646,0 C17.8896,0 17.6646,0.224 17.6646,0.5 L17.6646,1.297 C17.3026,1.444 16.9616,1.636 16.6726,1.853 L15.9606,1.449 C15.7216,1.314 15.4196,1.395 15.2816,1.632 L14.2726,3.365 C14.2056,3.479 14.1876,3.616 14.2216,3.744 C14.2556,3.872 14.3396,3.982 14.4536,4.049 L15.1386,4.444 C15.1096,4.633 15.0966,4.818 15.0966,5 C15.0966,5.184 15.1096,5.368 15.1356,5.554 L14.4466,5.951 C14.3316,6.017 14.2476,6.126 14.2136,6.254 C14.1796,6.382 14.1976,6.52 14.2636,6.634 L15.2636,8.367 C15.3996,8.602 15.7006,8.685 15.9396,8.553 L16.6696,8.146 C16.9596,8.363 17.3016,8.557 17.6646,8.704 L17.6646,9.5 C17.6646,9.776 17.8896,10 18.1646,10 L20.1646,10 C20.4406,10 20.6646,9.776 20.6646,9.5 L20.6646,8.701 C20.9906,8.561 21.3016,8.377 21.5866,8.153 L22.2556,8.547 C22.3706,8.615 22.5076,8.633 22.6376,8.6 C22.7656,8.565 22.8766,8.48 22.9426,8.365 L23.9336,6.632 C24.0706,6.394 23.9886,6.088 23.7486,5.951" id="Fill-73"></path>
                    </g>
                </g>
            </g>
        </g>
    </g>
</svg>