<?xml version="1.0" encoding="UTF-8"?>
<svg width="24px" height="22px" viewBox="0 0 24 22" version="1.1" xmlns="http://www.w3.org/2000/svg" xmlns:xlink="http://www.w3.org/1999/xlink">
    <!-- Generator: Sketch 52.6 (67491) - http://www.bohemiancoding.com/sketch -->
    <title>ico_staff</title>
    <desc>Created with Sketch.</desc>
    <g id="Loyalty" stroke="none" stroke-width="1" fill="none" fill-rule="evenodd">
        <g id="Loyalty-list" transform="translate(-19.000000, -587.000000)" fill="#FFFFFF">
            <g id="Staff" transform="translate(0.000000, 570.000000)">
                <g id="ico_staff" transform="translate(19.000000, 17.000000)">
                    <path d="M23.5,5 L16,5 L16,7.5 C16,7.776 15.776,8 15.5,8 L8.5,8 C8.224,8 8,7.776 8,7.5 L8,5 L0.5,5 C0.224,5 0,5.224 0,5.5 L0,9 L24,9 L24,5.5 C24,5.224 23.776,5 23.5,5" id="Fill-627"></path>
                    <path d="M4,18.5 C4,18.776 4.224,19 4.5,19 L9.5,19 L9.51,19 C9.786,19 10.01,18.776 10.01,18.5 C10.01,18.464 10.006,18.428 9.998,18.394 C9.965,17.105 9.331,15.989 8.414,15.414 C8.776,15.052 9,14.552 9,14 C9,12.898 8.103,12 7,12 C5.897,12 5,12.898 5,14 C5,14.552 5.225,15.052 5.587,15.414 C4.644,16.005 4,17.166 4,18.5 L4,18.5 Z M12,17.5 C12,17.776 12.224,18 12.5,18 L17.5,18 C17.776,18 18,17.776 18,17.5 C18,17.224 17.776,17 17.5,17 L12.5,17 C12.224,17 12,17.224 12,17.5 L12,17.5 Z M12,15.5 C12,15.776 12.224,16 12.5,16 L18.5,16 C18.776,16 19,15.776 19,15.5 C19,15.224 18.776,15 18.5,15 L12.5,15 C12.224,15 12,15.224 12,15.5 L12,15.5 Z M12,13.5 C12,13.776 12.224,14 12.5,14 L16.5,14 C16.776,14 17,13.776 17,13.5 C17,13.224 16.776,13 16.5,13 L12.5,13 C12.224,13 12,13.224 12,13.5 L12,13.5 Z M0,10 L24,10 L24,21.5 C24,21.776 23.776,22 23.5,22 L0.5,22 C0.224,22 0,21.776 0,21.5 L0,10 Z" id="Fill-629"></path>
                    <path d="M14.5,7 L15,7 L15,6.5 L15,2.644 C15,1.186 13.654,0 12,0 C10.346,0 9,1.186 9,2.644 L9,6.5 L9,7 L9.5,7 L14.5,7 Z" id="Fill-631"></path>
                </g>
            </g>
        </g>
    </g>
</svg>