<?xml version="1.0" encoding="UTF-8"?>
<svg width="24px" height="20px" viewBox="0 0 24 20" version="1.1" xmlns="http://www.w3.org/2000/svg" xmlns:xlink="http://www.w3.org/1999/xlink">
    <!-- Generator: Sketch 52.6 (67491) - http://www.bohemiancoding.com/sketch -->
    <title>Users</title>
    <desc>Created with Sketch.</desc>
    <g id="Loyalty" stroke="none" stroke-width="1" fill="none" fill-rule="evenodd">
        <g id="Loyalty-list" transform="translate(-18.000000, -352.000000)">
            <g id="Nav" transform="translate(-4.000000, 0.000000)">
                <g id="Users" transform="translate(4.000000, 332.000000)">
                    <g id="ico_users" transform="translate(18.000000, 20.000000)" fill="#FFFFFF">
                        <path d="M20.9331,13.1338 C20.4621,12.9638 19.9721,12.7878 19.5001,12.6058 L19.5001,11.7478 C19.8731,11.4998 20.4071,10.9438 20.4891,9.7638 C20.8281,9.4788 21.0021,8.8998 21.0021,8.3258 C21.0021,8.1018 20.9731,7.7748 20.8321,7.4918 C20.7861,7.3998 20.7301,7.3178 20.6671,7.2468 C20.9111,6.8008 21.2351,6.0708 20.9741,5.2878 C20.6141,4.2058 19.1461,3.8208 18.0001,3.8208 C16.9991,3.8208 15.7531,4.1138 15.2131,4.9088 C14.6841,4.8928 14.4121,5.1308 14.2771,5.3268 C13.9131,5.8578 14.1701,6.6298 14.3821,7.1888 C14.2961,7.2688 14.2221,7.3668 14.1621,7.4828 C14.0181,7.7638 13.9871,8.0908 13.9871,8.3158 C13.9871,8.8958 14.1651,9.4818 14.5111,9.7668 C14.5941,10.9448 15.1271,11.5008 15.5001,11.7478 L15.5001,12.6058 C15.3891,12.6488 15.2751,12.6898 15.1621,12.7328 C16.7991,13.7388 17.0001,14.3958 17.0001,14.9458 L17.0001,19.9458 L23.5001,19.9458 C23.7761,19.9458 24.0001,19.7228 24.0001,19.4458 L24.0001,14.9458 C24.0001,14.2648 23.1151,13.9188 20.9331,13.1338" id="Fill-665"></path>
                        <path d="M10.5,10.2264 C11.2,9.6874 11.446,8.6754 11.491,7.7964 C11.932,7.5054 12.146,6.8384 12.146,6.2984 C12.146,5.8694 12.016,5.4274 11.68,5.1634 C12.214,3.9234 12.122,2.9874 11.834,2.4314 C11.267,1.3344 9.733,0.9464 8.5,0.9464 C7.277,0.9464 5.734,1.3434 5.177,2.4014 C4.745,2.3814 4.335,2.5094 4.099,2.8644 C3.687,3.4864 4.066,4.4674 4.356,5.1514 C4,5.4144 3.859,5.8744 3.859,6.3154 C3.859,6.8504 4.078,7.5114 4.509,7.7964 C4.537,8.3474 4.647,8.9604 4.892,9.4554 C4.893,9.4584 4.895,9.4604 4.896,9.4624 C5.087,9.8464 5.315,10.0844 5.5,10.2264 L5.5,11.6094 C3.749,12.3224 0.479,13.7654 0.049,14.7444 C0.047,14.7494 0.043,14.7544 0.041,14.7584 C0.014,14.8244 0,14.8864 0,14.9464 L0,19.4464 C0,19.7224 0.224,19.9464 0.5,19.9464 L16,19.9464 L16,19.4464 L16,14.9464 C16,13.8624 11.54,12.0334 10.5,11.6094 L10.5,10.2264 Z" id="Fill-666"></path>
                    </g>
                    <polygon id="Rectangle-18-Copy-3" points="0 0 29 0 60 0 60 60 43 60 0 60"></polygon>
                </g>
            </g>
        </g>
    </g>
</svg>